<svg xmlns="http://www.w3.org/2000/svg" viewBox="0 0 27 27"><path d="M1 1h7v7h-7zM9 1h1v3h-1zM11 1h1v1h-1zM13 1h4v2h-1v1h2v1h-1v1h-1v-1h-1v-1h-3v1h-2v-1h1v-1h3v-1h-1zM19 1h7v7h-7zM2 2v5h5v-5zM20 2v5h5v-5zM3 3h3v3h-3zM21 3h3v3h-3zM9 5h1v1h-1zM12 5h1v1h-1zM14 5h1v1h1v3h3v2h-1v1h-2v1h2v1h1v1h-2v1h-1v1h-2v1h-1v1h-1v-2h1v-1h2v-1h1v-1h-2v-1h1v-3h-1v-1h1v-2h-1v1h-1v-2h1zM11 6h1v4h-1zM9 7h1v1h-1zM17 7h1v1h-1zM1 9h1v1h2v1h-2v1h-1zM4 9h6v1h1v3h1v1h-1v2h-2v-1h1v-2h-1v-1h-2v-1h2v-1h-3v3h3v2h-1v-1h-1v1h1v1h-2v-2h-2v-1h1v-3h-1zM21 9h1v1h1v2h1v1h-1v1h1v1h2v2h-1v-1h-1v1h1v1h1v8h-1v-1h-1v1h-3v-2h-1v-1h-1v1h-1v-1h-1v-1h-1v-2h-1v6h-3v-1h-1v-2h2v1h1v-1h-1v-1h1v-2h-1v-1h4v-2h3v-1h2v-1h-1v-1h1v-2h-1v-1h-1v-1h1zM23 9h3v1h-3zM19 11h1v1h1v1h-1v1h-1zM25 11h1v3h-1zM12 12h1v1h-1zM2 13h1v1h-1zM1 14h1v1h2v1h-2v2h-1zM13 14h1v1h-1zM19 15h1v1h-1zM4 16h1v1h3v-1h1v2h-5zM11 16h1v1h-1zM10 17h1v1h-1zM9 18h1v1h2v1h1v2h-3v1h-1zM18 18v3h3v-3zM23 18v1h-1v2h1v1h-2v1h2v1h1v-1h-1v-1h2v-3h-1v-1zM1 19h7v7h-7zM19 19h1v1h-1zM2 20v5h5v-5zM3 21h3v3h-3zM16 23h1v1h-1zM19 24h1v2h-1zM9 25h1v1h-1zM16 25h2v1h-2z"/></svg>